<svg preserveAspectRatio="none" width="100%" height="100%" overflow="visible" style="display: block;" viewBox="0 0 20 20" fill="none" xmlns="http://www.w3.org/2000/svg">
<g id="SVG">
<path id="Vector" d="M12.1126 9.23891L15.4645 10.5506C17.3978 11.3071 18.3645 11.6853 18.3325 12.2853C18.3004 12.8853 17.2916 13.1605 15.2739 13.7107C14.6732 13.8746 14.3728 13.9565 14.1646 14.1648C13.9563 14.3731 13.8743 14.6734 13.7105 15.2742C13.1603 17.2918 12.8851 18.3007 12.2851 18.3327C11.6851 18.3647 11.3068 17.3981 10.5503 15.4647L9.23867 12.1128C8.44659 10.0887 8.05059 9.07666 8.5635 8.56375C9.07642 8.05083 10.0884 8.44683 12.1126 9.23891Z" stroke="var(--stroke-0, #262626)" stroke-linejoin="round"/>
<path id="Vector_2" d="M9.04808 5.90258C9.22625 6.19824 9.61033 6.2935 9.906 6.11535C10.2017 5.9372 10.2969 5.5531 10.1187 5.25745L9.04808 5.90258ZM5.2577 10.1185C5.55335 10.2967 5.93744 10.2014 6.11559 9.90575C6.29374 9.61009 6.19848 9.226 5.90282 9.04784L5.2577 10.1185ZM4.79175 7.08317C4.79175 5.81752 5.81777 4.7915 7.08341 4.7915V3.5415C5.12742 3.5415 3.54175 5.12716 3.54175 7.08317H4.79175ZM7.08341 4.7915C7.91628 4.7915 8.64608 5.23544 9.04808 5.90258L10.1187 5.25745C9.5 4.23056 8.3725 3.5415 7.08341 3.5415V4.7915ZM5.90282 9.04784C5.23568 8.64584 4.79175 7.91605 4.79175 7.08317H3.54175C3.54175 8.37225 4.23081 9.49975 5.2577 10.1185L5.90282 9.04784Z" fill="var(--fill-0, #262626)"/>
<path id="Vector_3" d="M11.8763 6.77899C11.8982 7.12347 12.1952 7.38497 12.5397 7.36306C12.8842 7.34115 13.1457 7.04414 13.1238 6.69966L11.8763 6.77899ZM6.70106 13.1236C7.04556 13.1454 7.34252 12.8838 7.36437 12.5394C7.38621 12.1949 7.12465 11.8979 6.78016 11.8761L6.70106 13.1236ZM2.29175 7.08868C2.29175 4.43928 4.43955 2.2915 7.08895 2.2915V1.0415C3.74921 1.0415 1.04175 3.74891 1.04175 7.08868H2.29175ZM7.08895 2.2915C9.63425 2.2915 11.7171 4.27422 11.8763 6.77899L13.1238 6.69966C12.9229 3.54088 10.2981 1.0415 7.08895 1.0415V2.2915ZM6.78016 11.8761C4.27496 11.7173 2.29175 9.63434 2.29175 7.08868H1.04175C1.04175 10.2982 3.54176 12.9233 6.70106 13.1236L6.78016 11.8761Z" fill="var(--fill-0, #262626)"/>
</g>
</svg>
