<svg preserveAspectRatio="none" width="100%" height="100%" overflow="visible" style="display: block;" viewBox="0 0 22 22" fill="none" xmlns="http://www.w3.org/2000/svg">
<g id="68ccf77bfe4fa6b576913a30_Right%20Arrow.svg">
<path id="Vector" fill-rule="evenodd" clip-rule="evenodd" d="M2.75 11C2.75 11.3797 3.05781 11.6875 3.4375 11.6875H18.5625C18.9422 11.6875 19.25 11.3797 19.25 11C19.25 10.6203 18.9422 10.3125 18.5625 10.3125H3.4375C3.05781 10.3125 2.75 10.6203 2.75 11Z" fill="var(--fill-0, #262626)"/>
<path id="Vector_2" fill-rule="evenodd" clip-rule="evenodd" d="M11.8889 4.32636C11.6204 4.59485 11.6204 5.03015 11.8889 5.29864L17.5902 11L11.8889 16.7014C11.6204 16.9698 11.6204 17.4052 11.8889 17.6736C12.1573 17.9421 12.5927 17.9421 12.8611 17.6736L19.0486 11.4861C19.3171 11.2177 19.3171 10.7823 19.0486 10.5139L12.8611 4.32636C12.5927 4.05788 12.1573 4.05788 11.8889 4.32636Z" fill="var(--fill-0, #262626)"/>
</g>
</svg>
