<svg preserveAspectRatio="none" width="100%" height="100%" overflow="visible" style="display: block;" viewBox="0 0 16 16" fill="none" xmlns="http://www.w3.org/2000/svg">
<g id="Rocket">
<path id="Vector (Stroke)" d="M4.00195 9.99199C4.459 10.0061 4.89756 10.1678 5.25325 10.4497L5.40039 10.5779L5.4082 10.5857C6.20023 11.3677 6.18981 12.622 5.50977 13.4282L5.51042 13.4288C5.21526 13.7802 4.80844 14.0379 4.41732 14.229C4.01856 14.4237 3.58836 14.5722 3.20182 14.6827C2.81328 14.7939 2.45474 14.8709 2.19401 14.9204C2.06317 14.9452 1.95524 14.9637 1.87956 14.9757C1.84197 14.9817 1.81207 14.9857 1.79102 14.9887C1.78045 14.9903 1.77163 14.9918 1.76562 14.9926C1.76274 14.993 1.76023 14.9931 1.75846 14.9933C1.75768 14.9934 1.75706 14.9939 1.75651 14.9939H1.75521C1.54931 15.0215 1.3422 14.9514 1.19531 14.8045C1.04855 14.6577 0.97844 14.451 1.00586 14.2452L1.66667 14.3331L1.00586 14.2446V14.2433C1.00593 14.2427 1.0064 14.2421 1.00651 14.2413C1.00676 14.2395 1.00675 14.2371 1.00716 14.2342C1.00799 14.2282 1.00955 14.2199 1.01107 14.2094C1.01414 14.1883 1.01874 14.1581 1.02474 14.1202C1.03673 14.0446 1.0546 13.9372 1.07943 13.8064C1.12894 13.5457 1.20588 13.1867 1.31706 12.798C1.42762 12.4115 1.57608 11.9812 1.77083 11.5825C1.96187 11.1914 2.21964 10.7845 2.57096 10.4894C2.97038 10.1531 3.48004 9.97588 4.00195 9.99199ZM14.6706 0.666469C15.0371 0.668742 15.3332 0.966635 15.3333 1.33314C15.3333 3.20665 14.8069 6.47055 11.431 8.94316C11.4879 9.18163 11.5529 9.49569 11.5977 9.8429C11.6464 10.2211 11.6739 10.6567 11.6341 11.0851C11.5948 11.5078 11.4857 11.973 11.2214 12.3696L11.2207 12.3709C10.7681 13.0473 9.91462 13.4398 9.31836 13.6561C8.99795 13.7723 8.70175 13.8546 8.48633 13.908C8.37828 13.9348 8.28915 13.9546 8.22591 13.9679C8.19425 13.9746 8.16841 13.98 8.15039 13.9835C8.14153 13.9853 8.13414 13.9864 8.12891 13.9874C8.12637 13.9879 8.12403 13.9884 8.1224 13.9887C8.12167 13.9889 8.12097 13.9886 8.12044 13.9887L8.11979 13.9894H8.11914C7.92467 14.0247 7.72464 13.9715 7.57292 13.8449C7.4212 13.7182 7.33333 13.5308 7.33333 13.3331V10.2758L5.72396 8.66647H2.66667C2.46902 8.66647 2.28161 8.57861 2.15495 8.42689C2.02838 8.27518 1.97513 8.07506 2.01042 7.88066L2.66667 7.9998C2.06095 7.88985 2.01459 7.88144 2.01107 7.88066V7.87741C2.01137 7.87575 2.01188 7.87349 2.01237 7.8709C2.01336 7.86561 2.01517 7.85839 2.01693 7.84941C2.02044 7.83143 2.02525 7.8061 2.0319 7.77454C2.04524 7.71129 2.06495 7.62169 2.0918 7.51347C2.14522 7.2981 2.22823 7.00238 2.3444 6.68209C2.56071 6.08577 2.95295 5.23173 3.62956 4.7791L3.63021 4.77845C4.02906 4.51257 4.49679 4.40599 4.92057 4.37024C5.35007 4.33404 5.78628 4.36644 6.16471 4.41972C6.50346 4.46743 6.81062 4.53452 7.04687 4.59355C7.8562 3.4438 8.91844 2.49137 10.1543 1.81165C11.5374 1.05101 13.0921 0.656718 14.6706 0.666469ZM3.96094 11.3253C3.76719 11.3193 3.57793 11.3847 3.42969 11.5096L3.42904 11.5102C3.28043 11.635 3.12144 11.8552 2.96875 12.1678C2.8198 12.4727 2.69737 12.8234 2.59961 13.1652C2.5682 13.275 2.5399 13.3824 2.51432 13.4855C2.61743 13.4599 2.72542 13.4323 2.83529 13.4008C3.17695 13.3031 3.52716 13.18 3.83203 13.0311C4.14454 12.8784 4.36474 12.72 4.48958 12.5714L4.49089 12.5695C4.7555 12.2563 4.73238 11.7941 4.47331 11.5363C4.33386 11.4061 4.1518 11.3312 3.96094 11.3253ZM10.2266 9.69967C9.72097 9.97875 9.20029 10.2296 8.66667 10.451V12.4699C8.73066 12.449 8.79646 12.4264 8.86328 12.4021C9.43861 12.1935 9.91858 11.9194 10.1126 11.6294C10.2079 11.486 10.2785 11.2649 10.3066 10.962C10.3343 10.6642 10.3166 10.3336 10.2754 10.0135C10.2614 9.90491 10.2442 9.79972 10.2266 9.69967ZM13.972 2.0265C12.8607 2.11679 11.7784 2.44049 10.7969 2.98027C9.613 3.6314 8.61491 4.57434 7.89844 5.71985L7.89453 5.72636C7.46437 6.39826 7.0927 7.10555 6.7832 7.8403L8.16081 9.2179C8.90439 8.90903 9.62073 8.53786 10.3021 8.10788C13.1188 6.216 13.8357 3.7426 13.972 2.0265ZM5.03255 5.69902C4.73017 5.72452 4.51093 5.79376 4.36979 5.88782C4.08003 6.08221 3.80616 6.56171 3.59766 7.13652C3.57342 7.20334 3.55085 7.26914 3.52995 7.33314H5.55078C5.77221 6.80641 6.02277 6.29262 6.30143 5.79407C6.19875 5.77451 6.09028 5.75577 5.97852 5.74004C5.65875 5.69502 5.32918 5.67401 5.03255 5.69902Z" fill="var(--fill-0, #262626)"/>
</g>
</svg>
