<svg preserveAspectRatio="none" width="100%" height="100%" overflow="visible" style="display: block;" viewBox="0 0 20 20" fill="none" xmlns="http://www.w3.org/2000/svg">
<g id="svg">
<path id="Vector (Stroke)" d="M9.65091 1.67773C10.1544 1.69097 10.5312 2.00626 10.7064 2.37271C10.8858 2.74806 10.8851 3.22418 10.6348 3.62353L10.634 3.62271C10.1349 4.42158 9.92192 5.36663 10.0285 6.30256C10.1352 7.23864 10.5562 8.11114 11.2224 8.77734C11.8886 9.44343 12.7611 9.86377 13.6971 9.97037C14.6332 10.0769 15.5781 9.86343 16.377 9.36409L16.5292 9.28189C16.8919 9.11714 17.2971 9.1348 17.6262 9.29166C18.0182 9.47861 18.3496 9.89604 18.3195 10.4505C18.2326 12.0578 17.6819 13.6057 16.7342 14.9069C15.7865 16.2081 14.4819 17.2071 12.9785 17.7829C11.4752 18.3586 9.83703 18.4868 8.26256 18.1515C6.6881 17.8162 5.24482 17.0314 4.10647 15.8932C2.9681 14.755 2.18362 13.3116 1.84817 11.7371C1.51274 10.1626 1.64041 8.52458 2.21601 7.02115C2.79164 5.5177 3.79077 4.21337 5.09199 3.26546C6.39319 2.31757 7.94087 1.7663 9.54837 1.67935L9.65091 1.67773ZM8.85094 3.43391C7.8505 3.60872 6.89913 4.01019 6.07262 4.6123C5.03184 5.37057 4.2333 6.41429 3.77282 7.61685C3.31232 8.81958 3.2099 10.13 3.47822 11.3896C3.74657 12.6493 4.37412 13.8042 5.28486 14.7148C6.19559 15.6255 7.35041 16.2533 8.61006 16.5215C9.8697 16.7897 11.1802 16.6867 12.3828 16.2261C13.5855 15.7654 14.6292 14.9665 15.3874 13.9254C15.9892 13.0991 16.3894 12.1481 16.5642 11.1479C15.6113 11.5773 14.5563 11.7458 13.5083 11.6265C12.1977 11.4772 10.9759 10.8885 10.0432 9.95572C9.11049 9.02299 8.52168 7.80112 8.37243 6.49055C8.25312 5.44237 8.42136 4.38688 8.85094 3.43391Z" fill="var(--fill-0, #FF9D00)"/>
</g>
</svg>
