<svg preserveAspectRatio="none" width="100%" height="100%" overflow="visible" style="display: block;" viewBox="0 0 20 20" fill="none" xmlns="http://www.w3.org/2000/svg">
<g id="Frame" clip-path="url(#clip0_142_630)">
<g id="Vector">
<path d="M11.25 5.83333C11.4801 5.83333 11.6667 5.64679 11.6667 5.41667C11.6667 5.18655 11.4801 5 11.25 5C11.0199 5 10.8333 5.18655 10.8333 5.41667C10.8333 5.64679 11.0199 5.83333 11.25 5.83333Z" fill="var(--fill-0, #FF9D00)"/>
<path d="M14.5833 9.16667C14.8135 9.16667 15 8.98012 15 8.75C15 8.51988 14.8135 8.33333 14.5833 8.33333C14.3532 8.33333 14.1667 8.51988 14.1667 8.75C14.1667 8.98012 14.3532 9.16667 14.5833 9.16667Z" fill="var(--fill-0, #FF9D00)"/>
<path d="M5.41667 10.8333C5.64679 10.8333 5.83333 10.6468 5.83333 10.4167C5.83333 10.1865 5.64679 10 5.41667 10C5.18655 10 5 10.1865 5 10.4167C5 10.6468 5.18655 10.8333 5.41667 10.8333Z" fill="var(--fill-0, #FF9D00)"/>
<path d="M7.08333 6.66667C7.31345 6.66667 7.5 6.48012 7.5 6.25C7.5 6.01988 7.31345 5.83333 7.08333 5.83333C6.85321 5.83333 6.66667 6.01988 6.66667 6.25C6.66667 6.48012 6.85321 6.66667 7.08333 6.66667Z" fill="var(--fill-0, #FF9D00)"/>
<path d="M17.5 9.16667C17.5 7.42859 16.7338 5.74109 15.3353 4.48242C13.9339 3.22118 12.0158 2.5 10 2.5C8.01088 2.5 6.10297 3.28993 4.69645 4.69645C3.28993 6.10297 2.5 8.01088 2.5 10C2.5 11.9891 3.28993 13.897 4.69645 15.3035C6.10297 16.7101 8.01088 17.5 10 17.5H10.2083C10.3244 17.5 10.4384 17.4674 10.5371 17.4064C10.6357 17.3454 10.7156 17.2579 10.7674 17.1541C10.8192 17.0504 10.8413 16.9343 10.8309 16.8188C10.8205 16.7033 10.7776 16.5927 10.708 16.4998L10.4582 16.167C10.2028 15.8265 10.0472 15.4214 10.009 14.9976C9.97074 14.5738 10.0515 14.1477 10.2417 13.7671C10.432 13.3864 10.7252 13.0664 11.0872 12.8426C11.4492 12.6189 11.8661 12.5 12.2917 12.5H14.1667C15.0507 12.5 15.8983 12.1486 16.5234 11.5234C17.1486 10.8983 17.5 10.0507 17.5 9.16667ZM5.41667 10C5.18655 10 5 10.1865 5 10.4167C5 10.6468 5.18655 10.8333 5.41667 10.8333C5.64679 10.8333 5.83333 10.6468 5.83333 10.4167C5.83333 10.1865 5.64679 10 5.41667 10ZM14.5833 8.33333C14.3532 8.33333 14.1667 8.51988 14.1667 8.75C14.1667 8.98012 14.3532 9.16667 14.5833 9.16667C14.8135 9.16667 15 8.98012 15 8.75C15 8.51988 14.8135 8.33333 14.5833 8.33333ZM7.08333 5.83333C6.85321 5.83333 6.66667 6.01988 6.66667 6.25C6.66667 6.48012 6.85321 6.66667 7.08333 6.66667C7.31345 6.66667 7.5 6.48012 7.5 6.25C7.5 6.01988 7.31345 5.83333 7.08333 5.83333ZM11.25 5C11.0199 5 10.8333 5.18655 10.8333 5.41667C10.8333 5.64679 11.0199 5.83333 11.25 5.83333C11.4801 5.83333 11.6667 5.64679 11.6667 5.41667C11.6667 5.18655 11.4801 5 11.25 5ZM6.66667 10.4167C6.66667 11.107 6.10702 11.6667 5.41667 11.6667C4.72631 11.6667 4.16667 11.107 4.16667 10.4167C4.16667 9.72631 4.72631 9.16667 5.41667 9.16667C6.10702 9.16667 6.66667 9.72631 6.66667 10.4167ZM19.1667 9.16667C19.1667 10.4927 18.6395 11.7641 17.7018 12.7018C16.7641 13.6395 15.4927 14.1667 14.1667 14.1667H12.2917C12.1756 14.1667 12.0616 14.1992 11.9629 14.2603C11.8643 14.3213 11.7844 14.4088 11.7326 14.5125C11.6808 14.6163 11.6587 14.7323 11.6691 14.8478C11.6795 14.9634 11.7224 15.074 11.792 15.1668L12.0418 15.4997C12.2972 15.8401 12.4528 16.2453 12.491 16.6691C12.5293 17.0929 12.4485 17.519 12.2583 17.8996C12.068 18.2802 11.7748 18.6003 11.4128 18.8241C11.0508 19.0478 10.6339 19.1667 10.2083 19.1667H10C7.56885 19.1667 5.23715 18.201 3.51807 16.4819C1.79898 14.7629 0.833333 12.4312 0.833333 10C0.833333 7.56885 1.79898 5.23715 3.51807 3.51807C5.23715 1.79898 7.56885 0.833333 10 0.833333C12.4045 0.833333 14.726 1.69205 16.4502 3.24382C18.1773 4.79819 19.1667 6.92651 19.1667 9.16667ZM15.8333 8.75C15.8333 9.44036 15.2737 10 14.5833 10C13.893 10 13.3333 9.44036 13.3333 8.75C13.3333 8.05964 13.893 7.5 14.5833 7.5C15.2737 7.5 15.8333 8.05964 15.8333 8.75ZM8.33333 6.25C8.33333 6.94036 7.77369 7.5 7.08333 7.5C6.39298 7.5 5.83333 6.94036 5.83333 6.25C5.83333 5.55964 6.39298 5 7.08333 5C7.77369 5 8.33333 5.55964 8.33333 6.25ZM12.5 5.41667C12.5 6.10702 11.9404 6.66667 11.25 6.66667C10.5596 6.66667 10 6.10702 10 5.41667C10 4.72631 10.5596 4.16667 11.25 4.16667C11.9404 4.16667 12.5 4.72631 12.5 5.41667Z" fill="var(--fill-0, #FF9D00)"/>
</g>
</g>
<defs>
<clipPath id="clip0_142_630">
<rect width="20" height="20" fill="white"/>
</clipPath>
</defs>
</svg>
