<svg preserveAspectRatio="none" width="100%" height="100%" overflow="visible" style="display: block;" viewBox="0 0 20 20" fill="none" xmlns="http://www.w3.org/2000/svg">
<g id="svg" clip-path="url(#clip0_142_624)">
<path id="Vector (Stroke)" d="M9.16667 18.3333V16.6667C9.16667 16.2064 9.53976 15.8333 10 15.8333C10.4602 15.8333 10.8333 16.2064 10.8333 16.6667V18.3333C10.8333 18.7936 10.4602 19.1667 10 19.1667C9.53976 19.1667 9.16667 18.7936 9.16667 18.3333ZM4.69401 14.1276C5.01945 13.8022 5.54696 13.8022 5.8724 14.1276C6.19783 14.453 6.19783 14.9806 5.8724 15.306L4.69727 16.4811C4.37181 16.8063 3.84423 16.8065 3.51888 16.4811C3.19353 16.1558 3.1937 15.6282 3.51888 15.3027L4.69401 14.1276ZM14.1276 14.1276C14.453 13.8022 14.9806 13.8022 15.306 14.1276L16.4811 15.3027C16.8063 15.6282 16.8065 16.1558 16.4811 16.4811C16.1558 16.8065 15.6282 16.8063 15.3027 16.4811L14.1276 15.306C13.8022 14.9806 13.8022 14.453 14.1276 14.1276ZM12.5 10C12.5 8.61929 11.3807 7.5 10 7.5C8.61929 7.5 7.5 8.61929 7.5 10C7.5 11.3807 8.61929 12.5 10 12.5C11.3807 12.5 12.5 11.3807 12.5 10ZM3.33333 9.16667C3.79357 9.16667 4.16667 9.53976 4.16667 10C4.16667 10.4602 3.79357 10.8333 3.33333 10.8333H1.66667C1.20643 10.8333 0.833333 10.4602 0.833333 10C0.833333 9.53976 1.20643 9.16667 1.66667 9.16667H3.33333ZM18.3333 9.16667C18.7936 9.16667 19.1667 9.53976 19.1667 10C19.1667 10.4602 18.7936 10.8333 18.3333 10.8333H16.6667C16.2064 10.8333 15.8333 10.4602 15.8333 10C15.8333 9.53976 16.2064 9.16667 16.6667 9.16667H18.3333ZM3.51888 3.51888C3.84423 3.19353 4.37181 3.1937 4.69727 3.51888L5.8724 4.69401C6.19783 5.01945 6.19783 5.54696 5.8724 5.8724C5.54696 6.19783 5.01945 6.19783 4.69401 5.8724L3.51888 4.69727C3.1937 4.37181 3.19353 3.84423 3.51888 3.51888ZM15.3027 3.51888C15.6282 3.1937 16.1558 3.19353 16.4811 3.51888C16.8065 3.84423 16.8063 4.37181 16.4811 4.69727L15.306 5.8724C14.9806 6.19783 14.453 6.19783 14.1276 5.8724C13.8022 5.54696 13.8022 5.01945 14.1276 4.69401L15.3027 3.51888ZM9.16667 3.33333V1.66667C9.16667 1.20643 9.53976 0.833333 10 0.833333C10.4602 0.833333 10.8333 1.20643 10.8333 1.66667V3.33333C10.8333 3.79357 10.4602 4.16667 10 4.16667C9.53976 4.16667 9.16667 3.79357 9.16667 3.33333ZM14.1667 10C14.1667 12.3012 12.3012 14.1667 10 14.1667C7.69881 14.1667 5.83333 12.3012 5.83333 10C5.83333 7.69881 7.69881 5.83333 10 5.83333C12.3012 5.83333 14.1667 7.69881 14.1667 10Z" fill="var(--fill-0, #525252)"/>
</g>
<defs>
<clipPath id="clip0_142_624">
<rect width="20" height="20" fill="white"/>
</clipPath>
</defs>
</svg>
